<svg width="12" height="15" viewBox="0 0 12 15" fill="none" xmlns="http://www.w3.org/2000/svg">
<path fill-rule="evenodd" clip-rule="evenodd" d="M8.665 1.70264C8.79309 1.36414 8.85714 1.01675 8.85714 0.660436C8.85714 0.612928 8.85436 0.562452 8.84879 0.509005C8.84322 0.455559 8.84043 0.405082 8.84043 0.357574C8.66221 0.369451 8.48399 0.402113 8.30576 0.455559C8.12754 0.509006 7.93818 0.589174 7.73768 0.696067C7.54831 0.791083 7.37288 0.903912 7.21136 1.03456C7.04985 1.16521 6.90783 1.30773 6.7853 1.46213C6.5291 1.75905 6.33417 2.08567 6.2005 2.44197C6.06683 2.79828 6 3.15459 6 3.5109V3.64451C6 3.68608 6.00557 3.73062 6.01671 3.77813C6.40657 3.81376 6.77694 3.73062 7.12782 3.52871C7.4787 3.3268 7.80451 3.04176 8.10526 2.67357C8.35032 2.36477 8.5369 2.04113 8.665 1.70264ZM11.4026 12.2279C11.5315 11.9998 11.6486 11.7571 11.754 11.4998C11.8009 11.3945 11.8448 11.2863 11.8858 11.1751C11.9268 11.064 11.9649 10.9558 12 10.8505C11.8243 10.7687 11.6545 10.6751 11.4905 10.5698C11.3265 10.4645 11.1684 10.3417 11.0161 10.2013C10.6999 9.8972 10.4568 9.55798 10.287 9.18366C10.1171 8.80934 10.0322 8.39409 10.0322 7.93789C10.0322 7.35301 10.164 6.83249 10.4275 6.37629C10.6911 5.92008 11.0922 5.53407 11.631 5.21824C11.3265 4.78544 10.9488 4.45206 10.4978 4.21811C10.0468 3.98416 9.5227 3.8438 8.92533 3.79701C8.70278 3.77361 8.45681 3.78531 8.18741 3.8321C7.91801 3.87889 7.62518 3.96077 7.30893 4.07774C6.96925 4.20642 6.69985 4.29999 6.50073 4.35848C6.30161 4.41697 6.17277 4.44621 6.1142 4.44621C6.03221 4.44621 5.90044 4.41989 5.71889 4.36725C5.53733 4.31462 5.31186 4.23566 5.04246 4.13038C4.76135 4.02511 4.50659 3.94615 4.27818 3.89351C4.04978 3.84087 3.84773 3.81455 3.67203 3.81455C3.35578 3.82625 3.05417 3.87304 2.7672 3.95492C2.48023 4.0368 2.19619 4.15963 1.91508 4.32339C1.64568 4.47546 1.40556 4.66261 1.19473 4.88486C0.983893 5.10712 0.796487 5.35276 0.632504 5.6218C0.421668 5.97273 0.263544 6.35289 0.158126 6.7623C0.0527081 7.17171 0 7.61621 0 8.0958C0 8.50521 0.0380669 8.92632 0.114202 9.35912C0.190337 9.79193 0.304538 10.2306 0.456808 10.6751C0.609078 11.0845 0.775987 11.4705 0.95754 11.8331C1.13909 12.1957 1.34114 12.5291 1.56369 12.8333C1.76281 13.1257 1.95022 13.3743 2.12591 13.579C2.30161 13.7837 2.45388 13.9504 2.58272 14.079C2.80527 14.2779 3.02489 14.4241 3.24158 14.5177C3.45827 14.6113 3.67203 14.6522 3.88287 14.6405C4.02343 14.6405 4.18741 14.6142 4.37482 14.5615C4.56223 14.5089 4.77306 14.4358 5.00732 14.3422C5.24158 14.2486 5.46413 14.1814 5.67496 14.1404C5.8858 14.0995 6.09663 14.079 6.30747 14.079C6.49488 14.079 6.694 14.0995 6.90483 14.1404C7.11567 14.1814 7.33236 14.2486 7.5549 14.3422C7.78917 14.4358 8.00293 14.506 8.19619 14.5528C8.38946 14.5996 8.56808 14.623 8.73206 14.623C8.95461 14.623 9.17423 14.5762 9.39092 14.4826C9.60761 14.389 9.80966 14.2545 9.99707 14.079C10.1259 13.9621 10.2723 13.8041 10.4363 13.6053C10.6003 13.4064 10.7818 13.1666 10.981 12.8859C11.1332 12.6753 11.2738 12.456 11.4026 12.2279Z" fill="#E0E1D8"/>
</svg>
