<svg width="20" height="20" viewBox="0 0 20 20" fill="none" xmlns="http://www.w3.org/2000/svg">
<circle cx="10" cy="10" r="10" fill="black"/>
<path d="M9.774 6.7L9.207 9.895C9.153 10.228 9.009 11.11 8.946 11.668C8.775 11.11 8.55 10.462 8.379 9.994L7.119 6.7H5.886L4.77 13H5.832L6.399 9.805C6.435 9.607 6.561 8.752 6.651 8.113C6.786 8.626 7.065 9.337 7.191 9.679L8.469 13H9.72L10.836 6.7H9.774ZM13.0256 13.108C14.6276 13.108 15.6446 11.92 15.6446 10.381C15.6446 9.211 14.8706 8.392 13.6646 8.392C12.0356 8.392 11.0456 9.571 11.0456 11.182C11.0456 12.37 11.8196 13.108 13.0256 13.108ZM13.1066 12.325C12.4406 12.325 12.1526 12.001 12.1526 11.326C12.1526 10.705 12.2966 10.084 12.5846 9.661C12.8096 9.337 13.1426 9.175 13.6016 9.175C14.2406 9.175 14.5376 9.517 14.5376 10.183C14.5376 10.813 14.3846 11.434 14.0876 11.848C13.8626 12.163 13.5386 12.325 13.1066 12.325Z" fill="#E0E1D8"/>
</svg>
