<svg id="Layer_1" data-name="Layer 1" xmlns="http://www.w3.org/2000/svg" viewBox="0 0 101.65 117.32"><polygon points="50.81 110.8 52.25 109.97 50.81 110.8 45.16 107.55 45.16 107.55 39.52 104.28 45.16 101.03 39.52 97.77 33.87 101.03 39.52 104.28 39.52 110.8 45.16 114.06 50.81 117.32 56.45 114.06 62.09 110.8 62.09 104.28 56.45 107.54 50.81 104.28 45.16 107.55 50.81 110.8"/><polygon points="11.29 87.99 16.94 91.25 22.58 87.99 16.94 84.73 11.29 87.99"/><polygon points="28.23 78.21 22.58 74.95 16.94 78.21 22.58 81.47 28.23 78.21"/><polygon points="28.23 71.7 28.23 78.21 33.87 81.47 33.87 74.95 28.23 71.69 33.87 68.43 28.23 65.18 22.58 68.43 28.23 71.7"/><polygon points="67.74 68.43 73.39 71.7 79.03 68.43 73.39 65.18 67.74 68.43"/><polygon points="50.81 65.18 56.45 68.43 62.1 65.18 56.45 61.92 50.81 65.18"/><polygon points="39.52 65.18 45.16 68.43 50.81 65.18 45.16 61.92 39.52 65.18"/><polygon points="39.52 58.66 33.87 55.4 28.23 58.66 33.87 61.92 39.52 58.66"/><polygon points="56.45 81.47 56.45 87.99 62.1 84.73 62.1 78.21 56.45 81.47 50.81 78.21 56.45 74.95 56.45 68.43 50.81 71.7 45.16 68.43 45.16 74.95 50.8 78.21 45.16 81.47 50.81 84.73 56.45 81.47"/><polygon points="39.52 45.62 33.87 48.88 39.52 52.14 45.16 48.88 39.52 45.62"/><polygon points="50.81 39.1 45.16 35.85 39.52 39.1 45.16 42.37 50.81 39.11 56.45 42.37 62.09 39.1 56.45 35.85 50.81 39.1"/><polygon points="28.23 91.25 22.58 94.51 28.23 97.77 33.87 94.51 28.23 91.25"/><polygon points="45.16 87.99 39.52 91.25 45.16 94.51 50.81 91.25 45.16 87.99"/><polygon points="56.45 87.99 50.81 91.25 56.45 94.51 62.09 91.25 56.45 87.99"/><polygon points="56.45 94.51 50.81 97.77 45.16 94.51 45.16 101.03 50.81 104.28 56.45 101.03 62.09 104.28 62.09 104.28 62.09 110.8 67.74 107.55 67.74 107.55 73.38 104.28 73.38 97.77 67.74 101.03 64.92 102.66 67.74 101.03 62.09 97.77 56.45 101.03 56.45 94.51"/><polygon points="62.1 97.77 67.74 94.51 73.39 97.77 73.38 97.77 73.38 104.28 79.03 101.03 79.03 101.02 84.67 97.77 84.67 91.25 79.03 94.51 73.39 91.25 67.74 94.51 67.74 87.99 62.1 91.25 62.1 97.77"/><polygon points="67.74 68.43 67.74 61.92 62.09 65.18 62.09 71.69 56.45 74.95 62.09 78.21 67.74 74.95 62.1 71.69 67.74 68.43"/><polygon points="62.1 52.14 56.45 55.4 50.81 52.14 45.16 55.4 50.81 58.66 56.45 55.4 56.45 61.92 62.1 58.66 62.1 52.14"/><polygon points="11.29 74.95 11.29 74.95 5.65 78.21 5.65 84.73 11.29 81.47 11.29 81.47 16.93 84.73 16.94 78.21 11.29 74.95"/><polygon points="28.23 26.07 28.23 32.59 33.87 29.33 33.87 22.81 28.23 26.07"/><polygon points="16.94 52.14 22.58 48.88 22.58 55.4 22.58 55.4 22.58 55.4 16.94 58.66 16.94 65.18 16.94 65.17 16.94 65.18 11.29 68.43 11.29 74.95 16.94 71.69 16.94 71.69 22.58 74.95 22.58 68.43 16.94 65.18 22.58 61.92 22.58 61.92 28.23 65.18 28.23 58.66 22.58 55.4 28.23 52.14 28.23 45.62 22.58 48.88 22.58 42.37 16.94 45.62 16.94 52.14"/><polygon points="16.94 32.59 16.94 39.11 22.58 35.85 22.58 29.33 16.94 32.59"/><polygon points="33.87 35.84 28.23 39.1 28.23 32.59 22.58 35.85 22.58 42.37 28.23 39.11 28.23 45.62 28.23 45.62 28.23 52.14 33.87 55.4 33.87 48.88 28.23 45.62 33.87 42.36 33.87 35.85 33.87 35.85 33.87 42.36 39.52 45.62 39.52 39.1 33.87 35.84 39.52 32.59 39.52 26.07 33.87 29.33 33.87 35.84"/><polygon points="5.65 71.7 11.29 68.43 11.29 61.92 5.65 65.18 5.65 71.7"/><polygon points="11.29 48.88 5.65 52.14 5.65 58.66 11.29 55.4 11.29 48.88"/><polygon points="22.58 81.47 22.58 87.99 28.23 91.25 28.23 84.73 33.87 87.99 39.52 84.73 33.87 81.47 28.23 84.73 22.58 81.47"/><polygon points="33.87 68.43 39.52 71.69 33.87 74.95 39.52 78.21 45.16 74.95 39.52 71.69 39.52 65.18 33.87 61.92 33.87 68.43"/><polygon points="39.52 58.66 45.16 61.92 45.16 55.4 39.52 52.14 39.52 58.66"/><polygon points="33.87 87.99 33.87 94.51 39.52 97.77 39.52 91.25 33.87 87.99"/><polygon points="39.52 78.21 39.52 84.73 45.16 87.99 45.16 81.47 39.52 78.21"/><polygon points="56.45 42.37 50.81 45.62 45.16 42.37 45.16 48.88 50.81 52.14 56.45 48.88 56.45 42.37"/><polygon points="39.52 32.59 45.16 35.85 45.16 29.33 39.52 26.07 39.52 32.59"/><polygon points="67.74 35.85 67.74 35.84 67.74 29.33 62.1 26.07 62.1 26.07 62.09 26.07 62.09 26.07 62.09 26.07 56.45 29.33 50.81 26.07 45.16 29.33 50.81 32.59 56.45 29.33 56.45 35.85 62.09 32.59 67.74 35.85 62.09 39.1 62.09 39.11 62.09 45.62 67.74 42.36 73.38 45.62 73.38 39.1 67.74 35.85"/><polygon points="73.39 32.59 73.39 39.11 79.03 42.37 79.03 35.85 73.39 32.59"/><polygon points="62.09 26.07 62.09 19.55 56.45 16.29 56.45 16.29 56.45 16.29 56.45 9.78 62.09 13.03 62.09 13.04 62.09 19.55 67.74 22.81 67.74 29.33 73.39 32.59 73.39 26.07 79.03 29.33 79.03 35.85 84.67 39.11 84.67 32.59 79.03 29.33 79.03 22.81 73.38 19.55 73.38 26.07 67.74 22.81 67.74 16.29 73.38 19.55 79.03 16.29 73.38 13.03 72.09 13.78 73.38 13.03 67.74 9.77 67.74 9.77 62.09 6.52 56.45 9.77 56.45 9.77 62.09 6.52 56.45 3.26 50.8 6.51 50.8 6.51 56.45 3.26 50.8 0 45.16 3.26 45.16 3.26 39.52 6.52 45.16 9.77 48.84 7.65 45.16 9.77 45.16 16.29 45.16 16.29 45.16 16.29 45.16 16.3 39.52 19.55 39.52 26.07 45.16 22.81 50.8 26.07 50.8 19.55 45.16 16.3 45.16 16.29 50.81 13.03 50.81 6.52 50.81 6.52 50.81 13.03 56.45 16.29 56.45 16.29 50.81 19.55 50.81 26.07 56.45 22.81 62.09 26.07"/><polygon points="84.67 39.11 84.67 45.62 90.32 48.88 90.32 42.37 84.67 39.11"/><polygon points="5.65 45.62 11.29 42.37 11.29 35.85 5.65 39.11 5.65 45.62"/><polygon points="11.29 61.92 16.94 58.66 16.94 52.14 11.29 55.4 11.29 61.92"/><polygon points="16.94 39.11 11.29 42.37 11.29 48.88 16.94 45.62 16.94 39.11"/><polygon points="33.87 22.81 39.52 19.55 39.52 13.03 33.87 16.29 33.87 22.81"/><polygon points="22.58 29.33 28.23 26.07 28.23 19.55 22.58 22.81 22.58 29.33"/><polygon points="16.94 26.07 11.29 29.33 11.29 35.85 16.94 32.59 16.94 26.07"/><polygon points="5.64 32.59 11.29 29.33 5.64 26.07 0 29.33 0 29.33 0 35.84 0 42.36 5.64 45.62 5.64 39.11 5.64 39.1 5.64 32.59 4.72 32.05 5.64 32.59"/><polygon points="16.93 26.07 11.29 22.81 5.64 26.07 11.29 29.33 16.93 26.07"/><polygon points="22.58 22.81 22.58 22.81 28.22 19.55 22.58 16.29 16.93 19.55 16.93 19.55 11.29 22.81 16.93 26.07 22.58 22.81"/><polygon points="33.87 16.29 33.87 16.29 39.51 13.03 45.16 9.77 39.51 6.52 33.87 9.77 33.87 9.77 28.23 13.03 30.62 14.42 28.22 13.03 22.58 16.29 28.22 19.55 33.87 16.29"/><polygon points="33.87 101.03 28.23 97.77 22.58 94.51 16.94 91.25 16.94 97.77 22.58 101.03 28.23 104.28 33.87 107.55 33.87 107.55 39.52 110.8 39.52 104.28 33.87 101.03"/><polygon points="11.29 87.99 5.65 84.73 5.65 91.25 11.29 94.51 16.94 97.77 16.94 91.25 11.29 87.99"/><polygon points="95.96 78.21 90.32 74.95 90.32 74.95 90.32 74.95 84.67 78.21 84.67 84.73 90.32 81.47 90.32 81.47 95.96 84.73 90.32 87.99 84.67 84.73 79.03 87.99 79.03 81.47 73.39 84.73 67.74 81.47 73.38 78.21 79.03 81.47 84.67 78.21 79.03 74.95 73.39 78.21 73.39 71.7 67.74 74.95 67.74 81.47 62.09 84.73 67.74 87.99 73.39 84.73 73.39 91.25 79.03 87.99 84.67 91.25 87.29 89.74 84.67 91.25 84.67 97.77 90.32 94.51 90.32 87.99 90.32 87.99 90.32 94.51 95.96 91.25 101.61 87.99 101.61 81.47 95.96 84.73 95.96 84.73 101.61 81.47 101.61 74.95 95.96 78.21 95.96 78.21 101.61 74.95 101.61 68.43 95.96 71.7 95.96 78.21"/><path d="M96,58.66v6.52l-5.64-3.26V55.4Zm5.65-29.33L96,32.59V39.1l-5.64-3.25V29.33L96,32.59l5.64-3.26L96,26.07l-5.64,3.26h0L96,26.07l-5.64-3.26-5.65-3.26h0L79,16.29l-5.65,3.26L79,22.81h0l5.64,3.26h0v6.52l5.65,3.26v6.51l5.64,3.27v6.51l-5.64-3.26V55.4l-5.65-3.26v6.52L79,55.4V48.88l5.64,3.26V45.63L79,42.37v6.51l-5.65-3.25-5.64,3.25-5.65-3.26-5.64,3.26,5.64,3.26,5.65-3.26V55.4l5.64-3.26L79,55.4l-5.65,3.26h0L67.71,55.4l-5.65,3.26,5.65,3.26,5.64-3.26v6.52L79,61.92l5.64,3.26V58.66l5.65,3.26v6.54L84.64,65.2,79,68.46V75l5.64-3.26L90.29,75V68.46l5.64,3.25h0l5.65-3.25V61.94h0V55.42h0V48.9L96,52.14h0l5.65-3.26V42.37L96,45.63l5.65-3.26V35.85L96,39.11h0l5.65-3.26Z"/><polygon points="0 81.47 0 87.99 5.64 91.25 5.64 84.73 5.64 78.21 5.64 71.7 0 68.43 0 74.95 0 81.47"/><polygon points="0 48.88 0 48.88 0 55.4 0 61.92 0 61.92 0 68.43 5.64 71.69 5.64 65.18 5.64 65.18 5.64 58.66 5.64 52.14 3.67 51 5.64 52.14 5.64 45.62 0 42.37 0 48.88"/></svg>